<svg xmlns="http://www.w3.org/2000/svg" width="63" height="63" viewBox="0 0 63 63"><g transform="translate(-258 -160)"><circle cx="31.5" cy="31.5" r="31.5" transform="translate(258 160)" fill="#e5e5e5"/><circle cx="26" cy="26" r="26" transform="translate(264 166)" fill="#fff"/><path d="M22.244,36.63H3.858a.772.772,0,1,1,0-1.543H22.379a.771.771,0,0,0,.772-.772A2.315,2.315,0,0,0,20.836,32H3.087A3.087,3.087,0,0,0,0,35.087V50.521a3.087,3.087,0,0,0,3.087,3.087H22.244a2.388,2.388,0,0,0,2.45-2.315V38.945A2.388,2.388,0,0,0,22.244,36.63Zm-2.18,10.032a1.543,1.543,0,1,1,1.543-1.543A1.544,1.544,0,0,1,20.064,46.662Z" transform="translate(278 149)" fill="#fd5900"/><text transform="translate(286 198)" fill="#111" font-size="12" font-family="OpenSans-Bold, Open Sans" font-weight="700"><tspan x="0" y="0">$</tspan></text></g></svg>